<svg width="1920" height="406" viewBox="0 0 1920 406" fill="none" xmlns="http://www.w3.org/2000/svg">
<g opacity="0.7">
<path d="M1659.77 94.8604C1506.07 110.768 1336.79 105.448 1181.22 97.3162C1017.14 88.7403 852.99 83.3996 688.33 83.3996C494.598 83.3996 302.008 114.507 108.944 114.507C-44.297 114.507 -197.238 103.736 -350.478 100.612C-393.548 99.7337 -428.473 134.694 -428.473 177.772V349.118H2350.74V127.334C2350.74 77.6284 2310.43 37.2034 2260.75 38.817C2055.03 45.499 1867 73.4145 1659.77 94.8604Z" fill="url(#paint0_linear_501_2523)" fill-opacity="0.15"/>
<path d="M1669.38 128.326C1514.09 138.981 1345.79 127.924 1191.51 114.525C1028.79 100.395 865.606 89.4902 701.281 83.8985C507.943 77.3194 312.027 101.824 119.355 95.2672C-23.2113 90.4158 -164.399 76.231 -306.476 67.589C-366.427 63.9423 -421.011 110.766 -428.167 170.539L-445.001 311.151L2328.57 405.532L2355.24 182.75C2361.08 133.946 2326 92.8977 2276.71 92.807C2070.27 92.427 1879.04 113.941 1669.38 128.326Z" fill="url(#paint1_linear_501_2523)" fill-opacity="0.3"/>
</g>
<defs>
<linearGradient id="paint0_linear_501_2523" x1="1337.99" y1="37.334" x2="1337.99" y2="349.118" gradientUnits="userSpaceOnUse">
<stop stop-color="#B6A88D"/>
<stop offset="1" stop-color="#B6A88D" stop-opacity="0"/>
</linearGradient>
<linearGradient id="paint1_linear_501_2523" x1="1355.13" y1="59.9887" x2="1344.51" y2="372.046" gradientUnits="userSpaceOnUse">
<stop stop-color="#B6A88D"/>
<stop offset="1" stop-color="#B6A88D" stop-opacity="0"/>
</linearGradient>
</defs>
</svg>
