<svg width="1296" height="106" viewBox="0 0 1296 106" fill="none" xmlns="http://www.w3.org/2000/svg">
<path d="M977.661 71.9687C874.279 84.0903 760.424 80.0366 655.785 73.8401C545.429 67.3052 435.019 63.2355 324.269 63.2355C193.965 63.2355 64.4294 86.94 -65.4252 86.94C-159.985 86.94 -254.374 80.0313 -348.905 77.0523C-391.962 75.6954 -426.891 110.633 -426.891 153.712V265.717H1442.4V118.133C1442.4 68.4272 1402.08 27.9456 1352.45 30.5916C1225.4 37.3638 1107.1 56.7922 977.661 71.9687Z" fill="url(#paint0_linear_501_2334)" fill-opacity="0.1"/>
<path d="M984.274 85.0082C880.31 88.3448 766.895 81.1794 662.814 73.0548C553.046 64.4864 443.072 57.4514 332.505 52.9375C202.417 47.6265 71.6221 57.1119 -58.0178 51.8193C-142.07 48.3878 -225.647 41.5505 -309.444 36.0633C-369.428 32.1354 -423.033 78.6525 -429.011 138.554L-429.998 148.442L1436.2 224.631L1442.13 165.206C1447.02 116.296 1411.16 74.9042 1361.91 74.5178C1234.32 73.5169 1114.75 80.8209 984.274 85.0082Z" fill="url(#paint1_linear_501_2334)" fill-opacity="0.1"/>
<defs>
<linearGradient id="paint0_linear_501_2334" x1="761.229" y1="28.1328" x2="761.229" y2="265.717" gradientUnits="userSpaceOnUse">
<stop stop-color="#325B53" stop-opacity="0.8"/>
<stop offset="1" stop-color="#325B53" stop-opacity="0"/>
</linearGradient>
<linearGradient id="paint1_linear_501_2334" x1="770.925" y1="48.8825" x2="764.869" y2="197.223" gradientUnits="userSpaceOnUse">
<stop stop-color="#325B53" stop-opacity="0.8"/>
<stop offset="1" stop-color="#325B53" stop-opacity="0"/>
</linearGradient>
</defs>
</svg>
