<svg width="79" height="64" viewBox="0 0 79 64" fill="none" xmlns="http://www.w3.org/2000/svg">
<mask id="path-1-inside-1_501_2353" fill="white">
<path d="M38.8714 10.8834C38.7537 11.423 39.0958 11.9558 39.6354 12.0735L76.2869 20.0655C76.8265 20.1832 77.1685 20.716 77.0508 21.2556L67.9609 62.9421C67.8432 63.4817 67.3104 63.8238 66.7708 63.7061L1.58572 49.4921C1.04611 49.3745 0.704062 48.8416 0.821725 48.302L9.91169 6.61556C10.0294 6.07596 10.5622 5.73391 11.1018 5.85157L14.1827 6.52339C14.7223 6.64105 15.2551 6.299 15.3728 5.75939L16.0446 2.67847C16.1623 2.13886 16.6951 1.79681 17.2347 1.91448L38.7792 6.61238C39.3188 6.73005 39.6609 7.26287 39.5432 7.80247L38.8714 10.8834ZM42.2312 19.6731C33.8883 17.8538 25.6505 23.1422 23.8313 31.4851C22.012 39.828 27.3004 48.0658 35.6433 49.885C43.9862 51.7042 52.224 46.4159 54.0432 38.073C55.8624 29.7301 50.5741 21.4923 42.2312 19.6731ZM21.2486 15.0977C19.8582 14.7945 18.4848 15.6761 18.1816 17.0666C17.8784 18.4571 18.7601 19.8305 20.1505 20.1337C21.5408 20.4366 22.9134 19.5548 23.2166 18.1645C23.5198 16.7742 22.6389 15.4011 21.2486 15.0977Z"/>
</mask>
<path d="M38.8714 10.8834C38.7537 11.423 39.0958 11.9558 39.6354 12.0735L76.2869 20.0655C76.8265 20.1832 77.1685 20.716 77.0508 21.2556L67.9609 62.9421C67.8432 63.4817 67.3104 63.8238 66.7708 63.7061L1.58572 49.4921C1.04611 49.3745 0.704062 48.8416 0.821725 48.302L9.91169 6.61556C10.0294 6.07596 10.5622 5.73391 11.1018 5.85157L14.1827 6.52339C14.7223 6.64105 15.2551 6.299 15.3728 5.75939L16.0446 2.67847C16.1623 2.13886 16.6951 1.79681 17.2347 1.91448L38.7792 6.61238C39.3188 6.73005 39.6609 7.26287 39.5432 7.80247L38.8714 10.8834ZM42.2312 19.6731C33.8883 17.8538 25.6505 23.1422 23.8313 31.4851C22.012 39.828 27.3004 48.0658 35.6433 49.885C43.9862 51.7042 52.224 46.4159 54.0432 38.073C55.8624 29.7301 50.5741 21.4923 42.2312 19.6731ZM21.2486 15.0977C19.8582 14.7945 18.4848 15.6761 18.1816 17.0666C17.8784 18.4571 18.7601 19.8305 20.1505 20.1337C21.5408 20.4366 22.9134 19.5548 23.2166 18.1645C23.5198 16.7742 22.6389 15.4011 21.2486 15.0977Z" fill="#2B897A" fill-opacity="0.1"/>
<path d="M42.2312 19.6731L42.4442 18.696L42.2312 19.6731ZM23.8313 31.4851L22.8542 31.272L22.8542 31.272L23.8313 31.4851ZM35.6433 49.885L35.4302 50.8621L35.6433 49.885ZM54.0432 38.073L55.0203 38.286L55.0203 38.286L54.0432 38.073ZM21.2486 15.0977L21.4619 14.1207L21.4617 14.1207L21.2486 15.0977ZM18.1816 17.0666L17.2046 16.8536L17.2046 16.8536L18.1816 17.0666ZM20.1505 20.1337L19.9375 21.1107L19.9376 21.1107L20.1505 20.1337ZM23.2166 18.1645L24.1937 18.3776L24.1937 18.3776L23.2166 18.1645ZM39.5432 7.80247L40.5203 8.01552L39.5432 7.80247ZM16.0446 2.67847L15.0676 2.46542L16.0446 2.67847ZM11.1018 5.85157L11.3148 4.87453L11.1018 5.85157ZM1.58572 49.4921L1.79877 48.5151L1.58572 49.4921ZM67.9609 62.9421L66.9838 62.729L67.9609 62.9421ZM66.7708 63.7061L66.5577 64.6831L66.7708 63.7061ZM77.0508 21.2556L78.0279 21.4687L77.0508 21.2556ZM38.8714 10.8834L37.8944 10.6703L38.8714 10.8834ZM39.6354 12.0735L39.4224 13.0505L76.0738 21.0426L76.2869 20.0655L76.4999 19.0885L39.8485 11.0964L39.6354 12.0735ZM77.0508 21.2556L76.0738 21.0426L66.9838 62.729L67.9609 62.9421L68.9379 63.1551L78.0279 21.4687L77.0508 21.2556ZM66.7708 63.7061L66.9838 62.729L1.79877 48.5151L1.58572 49.4921L1.37267 50.4692L66.5577 64.6831L66.7708 63.7061ZM0.821725 48.302L1.79877 48.5151L10.8887 6.82861L9.91169 6.61556L8.93465 6.40252L-0.155316 48.089L0.821725 48.302ZM11.1018 5.85157L10.8887 6.82861L13.9697 7.50043L14.1827 6.52339L14.3958 5.54634L11.3148 4.87453L11.1018 5.85157ZM15.3728 5.75939L16.3498 5.97244L17.0217 2.89152L16.0446 2.67847L15.0676 2.46542L14.3958 5.54634L15.3728 5.75939ZM17.2347 1.91448L17.0217 2.89152L38.5662 7.58942L38.7792 6.61238L38.9923 5.63534L17.4478 0.937436L17.2347 1.91448ZM39.5432 7.80247L38.5662 7.58942L37.8944 10.6703L38.8714 10.8834L39.8485 11.0964L40.5203 8.01552L39.5432 7.80247ZM42.2312 19.6731L42.4442 18.696C33.5617 16.7591 24.7911 22.3896 22.8542 31.272L23.8313 31.4851L24.8083 31.6981C26.5099 23.8949 34.2148 18.9486 42.0181 20.6501L42.2312 19.6731ZM23.8313 31.4851L22.8542 31.272C20.9173 40.1546 26.5477 48.9252 35.4302 50.8621L35.6433 49.885L35.8563 48.908C28.053 47.2064 23.1067 39.5015 24.8083 31.6981L23.8313 31.4851ZM35.6433 49.885L35.4302 50.8621C44.3128 52.7989 53.0834 47.1686 55.0203 38.286L54.0432 38.073L53.0662 37.8599C51.3646 45.6632 43.6597 50.6095 35.8563 48.908L35.6433 49.885ZM54.0432 38.073L55.0203 38.286C56.9571 29.4035 51.3267 20.6329 42.4442 18.696L42.2312 19.6731L42.0181 20.6501C49.8214 22.3517 54.7677 30.0566 53.0662 37.8599L54.0432 38.073ZM21.2486 15.0977L21.4617 14.1207C19.5316 13.6998 17.6254 14.9235 17.2046 16.8536L18.1816 17.0666L19.1586 17.2797C19.3442 16.4288 20.1847 15.8892 21.0356 16.0747L21.2486 15.0977ZM18.1816 17.0666L17.2046 16.8536C16.7838 18.7836 18.0074 20.6898 19.9375 21.1107L20.1505 20.1337L20.3636 19.1566C19.5127 18.9711 18.9731 18.1305 19.1587 17.2796L18.1816 17.0666ZM20.1505 20.1337L19.9376 21.1107C21.8678 21.5313 23.7729 20.3072 24.1937 18.3776L23.2166 18.1645L22.2396 17.9515C22.054 18.8025 21.2139 19.3419 20.3634 19.1566L20.1505 20.1337ZM23.2166 18.1645L24.1937 18.3776C24.6144 16.448 23.3919 14.5419 21.4619 14.1207L21.2486 15.0977L21.0354 16.0747C21.8859 16.2603 22.4252 17.1004 22.2396 17.9515L23.2166 18.1645ZM38.7792 6.61238L38.5662 7.58942L39.5432 7.80247L40.5203 8.01552C40.7556 6.93631 40.0715 5.87067 38.9923 5.63534L38.7792 6.61238ZM16.0446 2.67847L17.0217 2.89152L17.2347 1.91448L17.4478 0.937436C16.3685 0.702108 15.3029 1.38621 15.0676 2.46542L16.0446 2.67847ZM14.1827 6.52339L13.9697 7.50043C15.0489 7.73575 16.1145 7.05165 16.3498 5.97244L15.3728 5.75939L14.3958 5.54634L14.1827 6.52339ZM9.91169 6.61556L10.8887 6.82861L10.8887 6.82861L11.1018 5.85157L11.3148 4.87453C10.2356 4.6392 9.16998 5.32331 8.93465 6.40252L9.91169 6.61556ZM1.58572 49.4921L1.79877 48.5151L1.79877 48.5151L0.821725 48.302L-0.155316 48.089C-0.390644 49.1682 0.293457 50.2338 1.37267 50.4692L1.58572 49.4921ZM67.9609 62.9421L66.9838 62.729L66.7708 63.7061L66.5577 64.6831C67.6369 64.9185 68.7026 64.2344 68.9379 63.1551L67.9609 62.9421ZM76.2869 20.0655L76.0738 21.0426L77.0508 21.2556L78.0279 21.4687C78.2632 20.3895 77.5791 19.3238 76.4999 19.0885L76.2869 20.0655ZM39.6354 12.0735L39.8485 11.0964L38.8714 10.8834L37.8944 10.6703C37.659 11.7496 38.3431 12.8152 39.4224 13.0505L39.6354 12.0735Z" fill="#427290" mask="url(#path-1-inside-1_501_2353)"/>
<circle cx="38.9334" cy="34.78" r="11.5253" transform="rotate(12.3011 38.9334 34.78)" stroke="#41728E"/>
</svg>
