<svg width="110" height="111" viewBox="0 0 110 111" fill="none" xmlns="http://www.w3.org/2000/svg">
<path d="M60.6599 50.9319L77.6703 42.1489L108.559 86.2288L68.1196 107.109L37.2305 63.0293L54.2409 54.2463" stroke="#325B53"/>
<path d="M37.167 63.2535L36.1501 65.8392L67.0393 109.919L107.479 89.0387L108.522 86.409" stroke="#325B53"/>
<rect x="0.731211" y="0.180078" width="34.3985" height="37.3507" rx="1.5" transform="matrix(0.888547 -0.458787 0.573876 0.818942 46.7203 68.2431)" stroke="#325B53"/>
<rect x="0.731211" y="0.180078" width="6.94659" height="11.1107" transform="matrix(0.888547 -0.458787 0.573876 0.818942 49.6539 48.7196)" stroke="#325B53"/>
<path d="M70.4182 70.467C73.0392 69.1137 76.3826 69.8623 77.9112 72.0437C79.4396 74.225 78.6428 77.1104 76.0219 78.4637C73.401 79.8169 70.0581 79.069 68.5294 76.8878C67.0008 74.7064 67.7972 71.8203 70.4182 70.467Z" stroke="#325B53"/>
<path d="M75.5187 82.8382L80.7554 80.1343C82.9637 78.9943 85.9102 79.7198 87.3363 81.755L91.1299 87.1685L77.8962 94.0015L74.1027 88.588C72.6765 86.5527 73.3104 83.9784 75.5187 82.8382Z" stroke="#325B53"/>
<path d="M76.4183 52.5522C77.3997 52.0455 78.7092 52.368 79.3431 53.2726L99.0561 81.4037C99.69 82.3083 99.4082 83.4524 98.4267 83.9592L93.6378 86.4319C92.6563 86.9386 91.3468 86.6161 90.7129 85.7116L87.7797 81.5257C86.1949 79.2645 82.9211 78.458 80.4676 79.7249L75.2317 82.4283C72.7782 83.6952 72.0739 86.5556 73.6584 88.817L76.5916 93.0029C77.2255 93.9074 76.9438 95.0515 75.9623 95.5583L70.5278 98.3643C69.5463 98.8711 68.2368 98.5486 67.6029 97.644L47.8899 69.5129C47.2561 68.6083 47.5378 67.4642 48.5193 66.9574L76.4183 52.5522ZM70.1235 70.0579C67.2877 71.5222 66.3712 74.6824 68.0768 77.1167C69.7828 79.5512 73.465 80.3377 76.3011 78.8735C79.1372 77.4091 80.0531 74.2483 78.3472 71.8138C76.6411 69.3796 72.9595 68.5936 70.1235 70.0579Z" fill="#2B897A" fill-opacity="0.1"/>
<path d="M57.8687 47.0378C60.7168 43.935 62.5405 39.5759 62.9324 33.4785C64.2977 12.2355 28.3119 2.0893 6.84753 1.02148C-13.398 1.02148 -44.0399 2.88274 -43.4928 24.9603C-42.9456 47.0378 -12.8509 55.2087 6.84753 54.15C21.5875 53.3579 40.0882 56.6127 51.7346 51.3652" stroke="#325B53" stroke-width="2"/>
</svg>
