<svg width="56" height="44" viewBox="0 0 56 44" fill="none" xmlns="http://www.w3.org/2000/svg">
<mask id="path-1-inside-1_501_2362" fill="white">
<path d="M54.8149 31.3173C54.9416 31.8549 54.6085 32.3934 54.0709 32.5201L9.05017 43.1292C8.51261 43.2559 7.97414 42.9228 7.84746 42.3853L0.838743 12.6433C0.712067 12.1057 1.04515 11.5672 1.58271 11.4406L46.6035 0.831379C47.141 0.704703 47.6795 1.03779 47.8062 1.57535L54.8149 31.3173ZM6.57492 14.5091C6.03736 14.6358 5.70427 15.1743 5.83095 15.7119L10.9449 37.4133C11.0716 37.9509 11.6101 38.284 12.1476 38.1573L49.0813 29.4539C49.6189 29.3272 49.952 28.7887 49.8253 28.2512L44.7113 6.54967C44.5846 6.01211 44.0462 5.67902 43.5086 5.8057L6.57492 14.5091Z"/>
</mask>
<path d="M54.8149 31.3173C54.9416 31.8549 54.6085 32.3934 54.0709 32.5201L9.05017 43.1292C8.51261 43.2559 7.97414 42.9228 7.84746 42.3853L0.838743 12.6433C0.712067 12.1057 1.04515 11.5672 1.58271 11.4406L46.6035 0.831379C47.141 0.704703 47.6795 1.03779 47.8062 1.57535L54.8149 31.3173ZM6.57492 14.5091C6.03736 14.6358 5.70427 15.1743 5.83095 15.7119L10.9449 37.4133C11.0716 37.9509 11.6101 38.284 12.1476 38.1573L49.0813 29.4539C49.6189 29.3272 49.952 28.7887 49.8253 28.2512L44.7113 6.54967C44.5846 6.01211 44.0462 5.67902 43.5086 5.8057L6.57492 14.5091Z" fill="#2B897A" fill-opacity="0.1"/>
<path d="M54.0709 32.5201L53.8416 31.5467L8.8208 42.1559L9.05017 43.1292L9.27954 44.1026L54.3003 33.4934L54.0709 32.5201ZM7.84746 42.3853L8.8208 42.1559L1.81208 12.4139L0.838743 12.6433L-0.134597 12.8726L6.87412 42.6146L7.84746 42.3853ZM1.58271 11.4406L1.81208 12.4139L46.8328 1.80472L46.6035 0.831379L46.3741 -0.14196L1.35335 10.4672L1.58271 11.4406ZM47.8062 1.57535L46.8328 1.80472L53.8416 31.5467L54.8149 31.3173L55.7882 31.088L48.7795 1.34598L47.8062 1.57535ZM5.83095 15.7119L4.85761 15.9412L9.97158 37.6427L10.9449 37.4133L11.9183 37.184L6.80429 15.4825L5.83095 15.7119ZM12.1476 38.1573L12.377 39.1306L49.3107 30.4272L49.0813 29.4539L48.8519 28.4805L11.9183 37.184L12.1476 38.1573ZM49.8253 28.2512L50.7986 28.0218L45.6846 6.3203L44.7113 6.54967L43.738 6.77904L48.8519 28.4805L49.8253 28.2512ZM43.5086 5.8057L43.2792 4.83236L6.34555 13.5358L6.57492 14.5091L6.80429 15.4825L43.738 6.77904L43.5086 5.8057ZM44.7113 6.54967L45.6846 6.3203C45.4313 5.24518 44.3544 4.57901 43.2792 4.83236L43.5086 5.8057L43.738 6.77904L44.7113 6.54967ZM49.0813 29.4539L49.3107 30.4272C50.3858 30.1738 51.052 29.0969 50.7986 28.0218L49.8253 28.2512L48.8519 28.4805L49.0813 29.4539ZM10.9449 37.4133L9.97158 37.6427C10.2249 38.7178 11.3019 39.384 12.377 39.1306L12.1476 38.1573L11.9183 37.184L10.9449 37.4133ZM5.83095 15.7119L6.80429 15.4825L6.80429 15.4825L6.57492 14.5091L6.34555 13.5358C5.27043 13.7892 4.60425 14.8661 4.85761 15.9412L5.83095 15.7119ZM46.6035 0.831379L46.8328 1.80472L47.8062 1.57535L48.7795 1.34598C48.5262 0.270862 47.4492 -0.395314 46.3741 -0.14196L46.6035 0.831379ZM0.838743 12.6433L1.81208 12.4139L1.81208 12.4139L1.58271 11.4406L1.35335 10.4672C0.278225 10.7206 -0.38795 11.7975 -0.134597 12.8726L0.838743 12.6433ZM9.05017 43.1292L8.8208 42.1559L8.8208 42.1559L7.84746 42.3853L6.87412 42.6146C7.12748 43.6897 8.20442 44.3559 9.27954 44.1026L9.05017 43.1292ZM54.0709 32.5201L54.3003 33.4934C55.3754 33.24 56.0416 32.1631 55.7882 31.088L54.8149 31.3173L53.8416 31.5467L54.0709 32.5201Z" fill="#427290" mask="url(#path-1-inside-1_501_2362)"/>
<path d="M10.9556 39.0951L18.5053 22.5019C18.7704 21.9192 19.5072 21.7322 20.0181 22.118L32.4509 31.5054C32.868 31.8203 33.4574 31.7609 33.8032 31.369L38.3121 26.2599C38.6242 25.9063 39.141 25.8188 39.5521 26.05L47.454 30.4942" stroke="#427290"/>
<circle cx="35.5" cy="17.7835" r="3.56957" transform="rotate(-13.2599 35.5 17.7835)" stroke="#427290"/>
</svg>
