<svg width="24" height="24" viewBox="0 0 24 24" fill="none" xmlns="http://www.w3.org/2000/svg">
<path d="M10.892 2.66391C11.3019 1.67836 12.6981 1.67836 13.108 2.66391L14.8926 6.95456C15.0654 7.37004 15.4561 7.65392 15.9047 7.68988L20.5368 8.06123C21.6007 8.14653 22.0322 9.47434 21.2215 10.1687L17.6924 13.1919C17.3506 13.4846 17.2014 13.9439 17.3058 14.3816L18.384 18.9018C18.6317 19.9401 17.5022 20.7607 16.5912 20.2043L12.6255 17.7821C12.2415 17.5475 11.7585 17.5475 11.3745 17.7821L7.40876 20.2043C6.49784 20.7607 5.36834 19.9401 5.61601 18.9018L6.69423 14.3816C6.79864 13.9439 6.64939 13.4846 6.30765 13.1919L2.77847 10.1687C1.96782 9.47434 2.39926 8.14653 3.46324 8.06123L8.09535 7.68988C8.5439 7.65392 8.93463 7.37004 9.10744 6.95456L10.892 2.66391Z" stroke="#C7CDD4" stroke-width="2"/>
</svg>
