<svg width="24" height="24" viewBox="0 0 24 24" fill="none" xmlns="http://www.w3.org/2000/svg">
<g clip-path="url(#clip0_40_329)">
<path d="M12.0005 1C7.02477 1 3.00049 4.443 3.00049 8.7C3.00049 13.0749 8.16544 19.0279 10.6699 21.6574C11.4027 22.4267 12.5983 22.4267 13.3311 21.6574C15.8355 19.0279 21.0005 13.0749 21.0005 8.7C21.0005 4.443 16.9762 1 12.0005 1ZM5.57192 8.7C5.57192 5.664 8.45192 3.2 12.0005 3.2C15.5491 3.2 18.4291 5.664 18.4291 8.7C18.4291 11.868 14.7262 16.609 12.0005 19.568C9.3262 16.631 5.57192 11.835 5.57192 8.7Z" fill="#2A3342"/>
<path d="M12.0005 12.001C13.3812 12.001 14.5005 10.8817 14.5005 9.50098C14.5005 8.12026 13.3812 7.00098 12.0005 7.00098C10.6198 7.00098 9.50049 8.12026 9.50049 9.50098C9.50049 10.8817 10.6198 12.001 12.0005 12.001Z" fill="#2A3342"/>
</g>
<defs>
<clipPath id="clip0_40_329">
<rect width="24" height="24" fill="white"/>
</clipPath>
</defs>
</svg>
