<svg width="24" height="24" viewBox="0 0 24 24" fill="none" xmlns="http://www.w3.org/2000/svg">
<path d="M7.11111 14.6315C6.76482 14.6315 6.47433 14.5304 6.23967 14.3283C6.00582 14.1269 5.88889 13.8771 5.88889 13.5789C5.88889 13.2806 6.00582 13.0305 6.23967 12.8284C6.47433 12.6269 6.76482 12.5262 7.11111 12.5262C7.45741 12.5262 7.74789 12.6269 7.98256 12.8284C8.21641 13.0305 8.33333 13.2806 8.33333 13.5789C8.33333 13.8771 8.21641 14.1269 7.98256 14.3283C7.74789 14.5304 7.45741 14.6315 7.11111 14.6315ZM12 14.6315C11.6537 14.6315 11.3636 14.5304 11.1298 14.3283C10.8951 14.1269 10.7778 13.8771 10.7778 13.5789C10.7778 13.2806 10.8951 13.0305 11.1298 12.8284C11.3636 12.6269 11.6537 12.5262 12 12.5262C12.3463 12.5262 12.6368 12.6269 12.8714 12.8284C13.1053 13.0305 13.2222 13.2806 13.2222 13.5789C13.2222 13.8771 13.1053 14.1269 12.8714 14.3283C12.6368 14.5304 12.3463 14.6315 12 14.6315ZM16.8889 14.6315C16.5426 14.6315 16.2525 14.5304 16.0187 14.3283C15.784 14.1269 15.6667 13.8771 15.6667 13.5789C15.6667 13.2806 15.784 13.0305 16.0187 12.8284C16.2525 12.6269 16.5426 12.5262 16.8889 12.5262C17.2352 12.5262 17.5253 12.6269 17.7591 12.8284C17.9938 13.0305 18.1111 13.2806 18.1111 13.5789C18.1111 13.8771 17.9938 14.1269 17.7591 14.3283C17.5253 14.5304 17.2352 14.6315 16.8889 14.6315ZM3.44444 22C2.77222 22 2.19656 21.794 1.71744 21.3821C1.23915 20.9695 1 20.4737 1 19.8948V6.2105C1 5.63156 1.23915 5.13612 1.71744 4.72419C2.19656 4.31156 2.77222 4.10525 3.44444 4.10525H4.66667V3.02631C4.66667 2.72807 4.78359 2.48245 5.01745 2.28947C5.25211 2.09649 5.54259 2 5.88889 2C6.23519 2 6.52567 2.1007 6.76033 2.3021C6.99419 2.50421 7.11111 2.75438 7.11111 3.05262V4.10525H16.8889V3.02631C16.8889 2.72807 17.0062 2.48245 17.2409 2.28947C17.4747 2.09649 17.7648 2 18.1111 2C18.4574 2 18.7475 2.1007 18.9813 2.3021C19.216 2.50421 19.3333 2.75438 19.3333 3.05262V4.10525H20.5556C21.2278 4.10525 21.8034 4.31156 22.2826 4.72419C22.7609 5.13612 23 5.63156 23 6.2105V19.8948C23 20.4737 22.7609 20.9695 22.2826 21.3821C21.8034 21.794 21.2278 22 20.5556 22H3.44444ZM3.44444 19.8948H20.5556V10.421H3.44444V19.8948ZM3.44444 8.31575H20.5556V6.2105H3.44444V8.31575Z" fill="#2A3342"/>
</svg>
