<svg width="83" height="60" viewBox="0 0 83 60" fill="none" xmlns="http://www.w3.org/2000/svg">
<path d="M40.7206 51.9996L41.9445 49.552" stroke="#B08E5F" stroke-width="3" stroke-linecap="round"/>
<path d="M45.6155 58.1182L46.8393 55.6705" stroke="#B08E5F" stroke-width="3" stroke-linecap="round"/>
<path d="M56.6309 58.1182L57.8547 55.6705" stroke="#B08E5F" stroke-width="3" stroke-linecap="round"/>
<path d="M33.3784 58.1182L34.6022 55.6705" stroke="#B08E5F" stroke-width="3" stroke-linecap="round"/>
<path d="M29.7053 51.9996L30.9291 49.552" stroke="#B08E5F" stroke-width="3" stroke-linecap="round"/>
<path d="M52.9598 51.9996L54.1836 49.552" stroke="#B08E5F" stroke-width="3" stroke-linecap="round"/>
<path d="M63.9731 51.9996L65.1969 49.552" stroke="#B08E5F" stroke-width="3" stroke-linecap="round"/>
<mask id="path-8-inside-1_1_431" fill="white">
<path d="M32.7523 0.597961C39.3195 0.598142 44.8466 4.89365 46.4867 10.7337C47.2167 10.5918 47.9721 10.5179 48.7455 10.5179C55.0328 10.5179 60.13 15.4391 60.1302 21.5101C60.1302 27.5804 55.0347 32.5009 48.7484 32.5023V36.0892H11.433C11.0049 36.1428 10.5681 36.1732 10.1244 36.1732C4.71739 36.173 0.334381 32.0635 0.334351 26.9944C0.334351 22.7146 3.45872 19.1189 7.68591 18.1028C7.88102 12.9565 12.2607 8.8421 17.6381 8.8421C18.3169 8.84212 18.9798 8.9076 19.6205 9.03253C21.7702 4.07793 26.8408 0.597961 32.7523 0.597961Z"/>
</mask>
<path d="M32.7523 0.597961C39.3195 0.598142 44.8466 4.89365 46.4867 10.7337C47.2167 10.5918 47.9721 10.5179 48.7455 10.5179C55.0328 10.5179 60.13 15.4391 60.1302 21.5101C60.1302 27.5804 55.0347 32.5009 48.7484 32.5023V36.0892H11.433C11.0049 36.1428 10.5681 36.1732 10.1244 36.1732C4.71739 36.173 0.334381 32.0635 0.334351 26.9944C0.334351 22.7146 3.45872 19.1189 7.68591 18.1028C7.88102 12.9565 12.2607 8.8421 17.6381 8.8421C18.3169 8.84212 18.9798 8.9076 19.6205 9.03253C21.7702 4.07793 26.8408 0.597961 32.7523 0.597961Z" fill="#2B897A" fill-opacity="0.1"/>
<path d="M32.7523 0.597961L32.7524 -2.40204H32.7523V0.597961ZM46.4867 10.7337L43.5984 11.5448C44.0207 13.0485 45.526 13.9766 47.0592 13.6786L46.4867 10.7337ZM48.7455 10.5179V7.51788H48.7454L48.7455 10.5179ZM60.1302 21.5101H63.1302V21.51L60.1302 21.5101ZM48.7484 32.5023L48.7478 29.5023C47.0912 29.5026 45.7484 30.8456 45.7484 32.5023H48.7484ZM48.7484 36.0892V39.0892C50.4053 39.0892 51.7484 37.746 51.7484 36.0892H48.7484ZM11.433 36.0892V33.0892C11.3084 33.0892 11.1839 33.0969 11.0602 33.1124L11.433 36.0892ZM10.1244 36.1732L10.1243 39.1732H10.1244V36.1732ZM0.334351 26.9944H-2.66565V26.9945L0.334351 26.9944ZM7.68591 18.1028L8.38704 21.0198C9.69427 20.7055 10.6328 19.56 10.6838 18.2165L7.68591 18.1028ZM17.6381 8.8421L17.6381 5.8421H17.6381V8.8421ZM19.6205 9.03253L19.0463 11.9771C20.4284 12.2466 21.8121 11.5185 22.3726 10.2266L19.6205 9.03253ZM32.7523 0.597961L32.7522 3.59796C38.0027 3.59811 42.3293 7.02569 43.5984 11.5448L46.4867 10.7337L49.375 9.92259C47.3639 2.76161 40.6362 -2.40182 32.7524 -2.40204L32.7523 0.597961ZM46.4867 10.7337L47.0592 13.6786C47.5998 13.5735 48.1635 13.5179 48.7456 13.5179L48.7455 10.5179L48.7454 7.51788C47.7807 7.51792 46.8337 7.61009 45.9142 7.78883L46.4867 10.7337ZM48.7455 10.5179V13.5179C53.476 13.5179 57.1301 17.1943 57.1302 21.5102L60.1302 21.5101L63.1302 21.51C63.13 13.6838 56.5896 7.51788 48.7455 7.51788V10.5179ZM60.1302 21.5101H57.1302C57.1302 25.8255 53.4775 29.5013 48.7478 29.5023L48.7484 32.5023L48.749 35.5023C56.5919 35.5006 63.1302 29.3353 63.1302 21.5101H60.1302ZM48.7484 32.5023H45.7484V36.0892H48.7484H51.7484V32.5023H48.7484ZM48.7484 36.0892V33.0892H11.433V36.0892V39.0892H48.7484V36.0892ZM11.433 36.0892L11.0602 33.1124C10.743 33.1521 10.4312 33.1732 10.1244 33.1732V36.1732V39.1732C10.705 39.1732 11.2669 39.1334 11.8057 39.0659L11.433 36.0892ZM10.1244 36.1732L10.1245 33.1732C6.18909 33.173 3.33437 30.2274 3.33435 26.9944L0.334351 26.9944L-2.66565 26.9945C-2.66561 33.8997 3.24569 39.1729 10.1243 39.1732L10.1244 36.1732ZM0.334351 26.9944H3.33435C3.33435 24.2541 5.35388 21.7488 8.38704 21.0198L7.68591 18.1028L6.98478 15.1859C1.56355 16.489 -2.66565 21.1751 -2.66565 26.9944H0.334351ZM7.68591 18.1028L10.6838 18.2165C10.8145 14.7673 13.7862 11.8421 17.6381 11.8421V8.8421V5.8421C10.7352 5.8421 4.94752 11.1457 4.68807 17.9892L7.68591 18.1028ZM17.6381 8.8421L17.638 11.8421C18.1236 11.8421 18.5943 11.8889 19.0463 11.9771L19.6205 9.03253L20.1947 6.088C19.3654 5.92627 18.5102 5.84213 17.6381 5.8421L17.6381 8.8421ZM19.6205 9.03253L22.3726 10.2266C24.0444 6.37346 28.0306 3.59796 32.7523 3.59796V0.597961V-2.40204C25.6511 -2.40204 19.496 1.78239 16.8684 7.83842L19.6205 9.03253Z" fill="#325B53" mask="url(#path-8-inside-1_1_431)"/>
<mask id="path-10-inside-2_1_431" fill="white">
<path d="M59.0794 12.836C65.4546 12.8361 70.6898 17.7113 71.264 23.9366C71.6823 23.882 72.1091 23.8506 72.5423 23.8506C77.9493 23.8509 82.3323 28.2346 82.3323 33.6417C82.3322 39.0486 77.9492 43.4314 72.5423 43.4317L72.5403 43.4307V43.4317H38.3138C38.3005 43.4318 38.287 43.4327 38.2737 43.4327C33.5426 43.4326 29.7075 39.5974 29.7073 34.8663C29.7073 30.135 33.5425 26.299 38.2737 26.2989C38.3921 26.2989 38.51 26.3029 38.6273 26.3077C39.6778 22.7647 42.9563 20.1797 46.8401 20.1797C47.1768 20.1798 47.5087 20.2006 47.8353 20.2383C49.7103 15.8848 54.0384 12.836 59.0794 12.836Z"/>
</mask>
<path d="M59.0794 12.836C65.4546 12.8361 70.6898 17.7113 71.264 23.9366C71.6823 23.882 72.1091 23.8506 72.5423 23.8506C77.9493 23.8509 82.3323 28.2346 82.3323 33.6417C82.3322 39.0486 77.9492 43.4314 72.5423 43.4317L72.5403 43.4307V43.4317H38.3138C38.3005 43.4318 38.287 43.4327 38.2737 43.4327C33.5426 43.4326 29.7075 39.5974 29.7073 34.8663C29.7073 30.135 33.5425 26.299 38.2737 26.2989C38.3921 26.2989 38.51 26.3029 38.6273 26.3077C39.6778 22.7647 42.9563 20.1797 46.8401 20.1797C47.1768 20.1798 47.5087 20.2006 47.8353 20.2383C49.7103 15.8848 54.0384 12.836 59.0794 12.836Z" fill="#EAF3F2"/>
<path d="M59.0794 12.836L59.0794 9.836H59.0794V12.836ZM71.264 23.9366L68.2767 24.2121C68.3515 25.0239 68.7536 25.7703 69.3903 26.2795C70.0269 26.7887 70.8434 27.0168 71.6519 26.9114L71.264 23.9366ZM72.5423 23.8506L72.5424 20.8506H72.5423V23.8506ZM82.3323 33.6417L85.3323 33.6417V33.6417H82.3323ZM72.5423 43.4317L71.2007 46.115C71.6173 46.3233 72.0767 46.4317 72.5424 46.4317L72.5423 43.4317ZM72.5403 43.4307L73.882 40.7474C72.952 40.2825 71.8476 40.3322 70.9632 40.8788C70.0787 41.4254 69.5403 42.391 69.5403 43.4307H72.5403ZM72.5403 43.4317V46.4317C74.1972 46.4317 75.5403 45.0886 75.5403 43.4317H72.5403ZM38.3138 43.4317V40.4317L38.3001 40.4317L38.3138 43.4317ZM38.2737 43.4327L38.2737 46.4327H38.2737V43.4327ZM29.7073 34.8663H26.7073V34.8664L29.7073 34.8663ZM38.2737 26.2989V23.2989H38.2737L38.2737 26.2989ZM38.6273 26.3077L38.5056 29.3052C39.8781 29.3609 41.113 28.4774 41.5035 27.1605L38.6273 26.3077ZM46.8401 20.1797L46.8403 17.1797H46.8401V20.1797ZM47.8353 20.2383L47.4904 23.2184C48.8064 23.3708 50.0665 22.6418 50.5906 21.425L47.8353 20.2383ZM59.0794 12.836L59.0794 15.836C63.8895 15.8361 67.8435 19.5154 68.2767 24.2121L71.264 23.9366L74.2513 23.6611C73.5362 15.9071 67.0196 9.83609 59.0794 9.836L59.0794 12.836ZM71.264 23.9366L71.6519 26.9114C71.9575 26.8716 72.2538 26.8506 72.5423 26.8506V23.8506V20.8506C71.9643 20.8506 71.4072 20.8925 70.8761 20.9618L71.264 23.9366ZM72.5423 23.8506L72.5422 26.8506C76.2921 26.8508 79.3323 29.8912 79.3323 33.6417H82.3323H85.3323C85.3323 26.578 79.6064 20.851 72.5424 20.8506L72.5423 23.8506ZM82.3323 33.6417L79.3323 33.6416C79.3322 37.3916 76.2924 40.4315 72.5422 40.4317L72.5423 43.4317L72.5424 46.4317C79.606 46.4314 85.3321 40.7055 85.3323 33.6417L82.3323 33.6417ZM72.5423 43.4317L73.8839 40.7484L73.882 40.7474L72.5403 43.4307L71.1987 46.114L71.2007 46.115L72.5423 43.4317ZM72.5403 43.4307H69.5403V43.4317H72.5403H75.5403V43.4307H72.5403ZM72.5403 43.4317V40.4317H38.3138V43.4317V46.4317H72.5403V43.4317ZM38.3138 43.4317L38.3001 40.4317C38.2654 40.4319 38.2369 40.4326 38.219 40.4331C38.2098 40.4333 38.2022 40.4336 38.1971 40.4338C38.1926 40.4339 38.1881 40.4341 38.1877 40.4341C38.1862 40.4341 38.1879 40.4341 38.1905 40.434C38.1934 40.4339 38.1988 40.4337 38.2058 40.4335C38.2193 40.4332 38.2434 40.4327 38.2737 40.4327V43.4327V46.4327C38.3108 46.4327 38.3415 46.432 38.3617 46.4315C38.3809 46.431 38.3972 46.4304 38.3999 46.4303C38.4028 46.4302 38.4016 46.4303 38.4004 46.4303C38.3987 46.4304 38.3944 46.4305 38.3886 46.4307C38.3774 46.431 38.3555 46.4315 38.3275 46.4317L38.3138 43.4317ZM38.2737 43.4327L38.2738 40.4327C35.1995 40.4326 32.7074 37.9406 32.7073 34.8662L29.7073 34.8663L26.7073 34.8664C26.7075 41.2542 31.8857 46.4326 38.2737 46.4327L38.2737 43.4327ZM29.7073 34.8663H32.7073C32.7073 31.7915 35.1998 29.2989 38.2738 29.2989L38.2737 26.2989L38.2737 23.2989C31.8852 23.299 26.7073 28.4786 26.7073 34.8663H29.7073ZM38.2737 26.2989V29.2989C38.3286 29.2989 38.3966 29.3008 38.5056 29.3052L38.6273 26.3077L38.7489 23.3101C38.6235 23.3051 38.4556 23.2989 38.2737 23.2989V26.2989ZM38.6273 26.3077L41.5035 27.1605C42.187 24.8553 44.3218 23.1797 46.8401 23.1797V20.1797V17.1797C41.5909 17.1797 37.1685 20.6742 35.751 25.4549L38.6273 26.3077ZM46.8401 20.1797L46.84 23.1797C47.0531 23.1798 47.2697 23.1929 47.4904 23.2184L47.8353 20.2383L48.1802 17.2582C47.7478 17.2082 47.3005 17.1798 46.8403 17.1797L46.8401 20.1797ZM47.8353 20.2383L50.5906 21.425C52.0089 18.1319 55.2795 15.836 59.0794 15.836V12.836V9.836C52.7972 9.836 47.4117 13.6378 45.08 19.0516L47.8353 20.2383Z" fill="#325B53" mask="url(#path-10-inside-2_1_431)"/>
</svg>
