<svg width="113" height="70" viewBox="0 0 113 70" fill="none" xmlns="http://www.w3.org/2000/svg">
<path d="M59.6653 66H53.6653C52.5607 66 51.6653 65.1046 51.6653 64V46C51.6653 45.4477 52.113 45 52.6653 45H60.6653C61.2176 45 61.6653 45.4477 61.6653 46V64C61.6653 65.1046 60.7699 66 59.6653 66Z" stroke="#B08E5F" stroke-width="3" stroke-linecap="round"/>
<path d="M85.6653 5H27.6653C25.4561 5 23.6653 6.79086 23.6653 9V38.6V41C23.6653 43.2091 25.4561 45 27.6653 45H85.6653C87.8744 45 89.6653 43.2091 89.6653 41V9C89.6653 6.79086 87.8744 5 85.6653 5Z" stroke="#B08E5F" stroke-width="3" stroke-linecap="round"/>
<circle cx="56.6653" cy="25" r="12.5" fill="#2B897A" fill-opacity="0.1" stroke="#325B53" stroke-width="3" stroke-linecap="round"/>
<circle cx="52.1653" cy="22.5" r="1.5" fill="#325B53"/>
<circle cx="61.1653" cy="22.5" r="1.5" fill="#325B53"/>
<path d="M51.6653 29C53.1468 30.5092 57.2208 32.6222 61.6653 29" stroke="#325B53" stroke-width="3" stroke-linecap="round"/>
</svg>
