<svg width="1920" height="217" viewBox="0 0 1920 217" fill="none" xmlns="http://www.w3.org/2000/svg">
<g clip-path="url(#clip0_1_494)">
<mask id="path-1-inside-1_1_494" fill="white">
<path d="M1650.25 29C1656.73 29 1662.39 32.5228 1665.41 37.7578C1665.57 37.7525 1665.72 37.75 1665.88 37.75C1673.12 37.75 1679 43.6263 1679 50.875C1679 57.487 1674.11 62.9553 1667.75 63.8652L1667.75 64L1632.75 64L1632.3 63.9883C1627.68 63.754 1624 59.9315 1624 55.25C1624 50.4175 1627.92 46.5 1632.75 46.5C1632.75 36.835 1640.59 29 1650.25 29Z"/>
</mask>
<path d="M1650.25 29C1656.73 29 1662.39 32.5228 1665.41 37.7578C1665.57 37.7525 1665.72 37.75 1665.88 37.75C1673.12 37.75 1679 43.6263 1679 50.875C1679 57.487 1674.11 62.9553 1667.75 63.8652L1667.75 64L1632.75 64L1632.3 63.9883C1627.68 63.754 1624 59.9315 1624 55.25C1624 50.4175 1627.92 46.5 1632.75 46.5C1632.75 36.835 1640.59 29 1650.25 29Z" fill="white" fill-opacity="0.8"/>
<path d="M1665.41 37.7578L1663.68 38.7584L1664.28 39.7981L1665.48 39.7566L1665.41 37.7578ZM1667.75 63.8652L1667.47 61.8854L1665.75 62.131L1665.75 63.8652L1667.75 63.8652ZM1667.75 64L1667.75 66L1669.75 66L1669.75 64L1667.75 64ZM1632.75 64L1632.7 65.9993L1632.72 66L1632.75 66L1632.75 64ZM1632.3 63.9883L1632.2 65.9857L1632.22 65.987L1632.25 65.9876L1632.3 63.9883ZM1632.75 46.5L1632.75 48.5L1634.75 48.5L1634.75 46.5L1632.75 46.5ZM1650.25 29L1650.25 31C1655.99 31 1661 34.1164 1663.68 38.7584L1665.41 37.7578L1667.14 36.7572C1663.78 30.9292 1657.47 27 1650.25 27L1650.25 29ZM1665.41 37.7578L1665.48 39.7566C1665.61 39.7522 1665.74 39.75 1665.88 39.75L1665.88 37.75L1665.88 35.75C1665.7 35.75 1665.52 35.7529 1665.34 35.759L1665.41 37.7578ZM1665.88 37.75L1665.88 39.75C1672.02 39.75 1677 44.7308 1677 50.875L1679 50.875L1681 50.875C1681 42.5217 1674.23 35.75 1665.88 35.75L1665.88 37.75ZM1679 50.875L1677 50.875C1677 56.4774 1672.86 61.1143 1667.47 61.8854L1667.75 63.8652L1668.03 65.8451C1675.36 64.7963 1681 58.4967 1681 50.875L1679 50.875ZM1667.75 63.8652L1665.75 63.8652L1665.75 64L1667.75 64L1669.75 64L1669.75 63.8652L1667.75 63.8652ZM1667.75 64L1667.75 62L1632.75 62L1632.75 64L1632.75 66L1667.75 66L1667.75 64ZM1632.75 64L1632.8 62.0007L1632.35 61.989L1632.3 63.9883L1632.25 65.9876L1632.7 65.9993L1632.75 64ZM1632.3 63.9883L1632.4 61.9908C1628.84 61.8102 1626 58.8607 1626 55.25L1624 55.25L1622 55.25C1622 61.0023 1626.52 65.6978 1632.2 65.9857L1632.3 63.9883ZM1624 55.25L1626 55.25C1626 51.5221 1629.02 48.5 1632.75 48.5L1632.75 46.5L1632.75 44.5C1626.81 44.5 1622 49.3129 1622 55.25L1624 55.25ZM1632.75 46.5L1634.75 46.5C1634.75 37.9396 1641.69 31 1650.25 31L1650.25 29L1650.25 27C1639.48 27 1630.75 35.7304 1630.75 46.5L1632.75 46.5Z" fill="#DCD7CD" mask="url(#path-1-inside-1_1_494)"/>
<mask id="path-3-inside-2_1_494" fill="white">
<path d="M1697.16 71.0234C1701.6 71.0234 1705.48 73.4412 1707.55 77.0312C1707.66 77.0275 1707.77 77.0234 1707.87 77.0234C1712.84 77.0234 1716.87 81.0529 1716.87 86.0234C1716.87 90.5576 1713.52 94.3069 1709.16 94.9307L1709.16 95.0234L1685.16 95.0234L1684.85 95.0156C1681.68 94.855 1679.16 92.2336 1679.16 89.0234C1679.16 85.7097 1681.84 83.0234 1685.16 83.0234L1685.16 82.7139C1685.33 76.2295 1690.63 71.0234 1697.16 71.0234Z"/>
</mask>
<path d="M1697.16 71.0234C1701.6 71.0234 1705.48 73.4412 1707.55 77.0312C1707.66 77.0275 1707.77 77.0234 1707.87 77.0234C1712.84 77.0234 1716.87 81.0529 1716.87 86.0234C1716.87 90.5576 1713.52 94.3069 1709.16 94.9307L1709.16 95.0234L1685.16 95.0234L1684.85 95.0156C1681.68 94.855 1679.16 92.2336 1679.16 89.0234C1679.16 85.7097 1681.84 83.0234 1685.16 83.0234L1685.16 82.7139C1685.33 76.2295 1690.63 71.0234 1697.16 71.0234Z" fill="white" fill-opacity="0.8"/>
<path d="M1697.16 71.0234L1697.16 69.0234L1697.16 71.0234ZM1707.55 77.0312L1705.82 78.0317L1706.42 79.072L1707.62 79.03L1707.55 77.0312ZM1707.87 77.0234L1707.87 75.0234L1707.87 77.0234ZM1716.87 86.0234L1718.87 86.0234L1716.87 86.0234ZM1709.16 94.9307L1708.88 92.9508L1707.16 93.1963L1707.16 94.9307L1709.16 94.9307ZM1709.16 95.0234L1709.16 97.0234L1711.16 97.0234L1711.16 95.0234L1709.16 95.0234ZM1685.16 95.0234L1685.11 97.0228L1685.13 97.0234L1685.16 97.0234L1685.16 95.0234ZM1684.85 95.0156L1684.75 97.0131L1684.77 97.0143L1684.8 97.015L1684.85 95.0156ZM1679.16 89.0234L1677.16 89.0234L1679.16 89.0234ZM1685.16 83.0234L1685.16 85.0234L1687.13 85.0234L1687.16 83.0487L1685.16 83.0234ZM1685.16 82.7139L1683.16 82.6632L1683.16 82.6759L1683.16 82.6886L1685.16 82.7139ZM1697.16 71.0234L1697.16 73.0234C1700.86 73.0234 1704.09 75.0337 1705.82 78.0317L1707.55 77.0312L1709.28 76.0308C1706.87 71.8488 1702.35 69.0234 1697.16 69.0234L1697.16 71.0234ZM1707.55 77.0312L1707.62 79.03C1707.74 79.0259 1707.81 79.0234 1707.87 79.0234L1707.87 77.0234L1707.87 75.0234C1707.72 75.0234 1707.58 75.0292 1707.48 75.0325L1707.55 77.0312ZM1707.87 77.0234L1707.87 79.0234C1711.74 79.0234 1714.87 82.1574 1714.87 86.0234L1716.87 86.0234L1718.87 86.0234C1718.87 79.9483 1713.95 75.0234 1707.87 75.0234L1707.87 77.0234ZM1716.87 86.0234L1714.87 86.0234C1714.87 89.5477 1712.27 92.4659 1708.88 92.9508L1709.16 94.9307L1709.44 96.9105C1714.77 96.148 1718.87 91.5674 1718.87 86.0234L1716.87 86.0234ZM1709.16 94.9307L1707.16 94.9307L1707.16 95.0234L1709.16 95.0234L1711.16 95.0234L1711.16 94.9307L1709.16 94.9307ZM1709.16 95.0234L1709.16 93.0234L1685.16 93.0234L1685.16 95.0234L1685.16 97.0234L1709.16 97.0234L1709.16 95.0234ZM1685.16 95.0234L1685.21 93.0241L1684.9 93.0163L1684.85 95.0156L1684.8 97.015L1685.11 97.0228L1685.16 95.0234ZM1684.85 95.0156L1684.95 93.0182C1682.84 92.9112 1681.16 91.163 1681.16 89.0234L1679.16 89.0234L1677.16 89.0234C1677.16 93.3043 1680.52 96.7988 1684.75 97.0131L1684.85 95.0156ZM1679.16 89.0234L1681.16 89.0234C1681.16 86.8143 1682.95 85.0234 1685.16 85.0234L1685.16 83.0234L1685.16 81.0234C1680.74 81.0234 1677.16 84.6052 1677.16 89.0234L1679.16 89.0234ZM1685.16 83.0234L1687.16 83.0487L1687.16 82.7391L1685.16 82.7139L1683.16 82.6886L1683.16 82.9982L1685.16 83.0234ZM1685.16 82.7139L1687.16 82.7645C1687.3 77.3619 1691.72 73.0234 1697.16 73.0234L1697.16 71.0234L1697.16 69.0234C1689.55 69.0234 1683.35 75.0972 1683.16 82.6632L1685.16 82.7139Z" fill="#DCD7CD" mask="url(#path-3-inside-2_1_494)"/>
<path d="M1833.69 74.2946L1893.99 174.152C1910.62 201.697 1892.75 234.962 1862.02 233.66L1742.84 228.608C1711.42 227.276 1691.3 191.007 1707.51 164.906L1766.38 70.1C1781.52 45.7296 1817.8 47.9909 1833.69 74.2946Z" fill="url(#paint0_linear_1_494)" fill-opacity="0.1"/>
<path d="M1620.27 103.138L1665.62 153.28C1688.43 178.493 1663.53 221.379 1626.9 219.989L1527.05 216.2C1491.76 214.86 1480.29 173.295 1508.58 149.232L1563.07 102.879C1580.87 87.7383 1606.44 87.8544 1620.27 103.138Z" fill="url(#paint1_linear_1_494)" fill-opacity="0.1"/>
<path d="M1931.7 232.073L1840.58 81.1689C1821.52 49.6045 1777.98 46.8909 1759.81 76.1354L1669.86 220.975" stroke="#DCD7CD" stroke-width="3.12724"/>
<path d="M1729.48 223.88L1620.26 103.137C1606.44 87.8534 1580.87 87.7374 1563.07 102.878L1434 212.668" stroke="#DCD7CD" stroke-width="3.12724"/>
<path d="M312.304 65.3016L377.36 172.995C393.993 200.53 372.97 235.438 340.853 233.613L197.63 225.476C165.355 223.642 148.475 186.264 168.438 160.838L246.605 61.2821C263.884 39.2758 297.838 41.3531 312.304 65.3016Z" fill="url(#paint2_linear_1_494)" fill-opacity="0.1"/>
<path d="M416.578 237.916L312.304 65.3016C297.838 41.3531 263.884 39.2758 246.605 61.2821L121.101 221.127" stroke="#DCD7CD" stroke-width="3.12724"/>
<path d="M163.334 166.429L171.448 179.934C188.046 207.561 166.827 242.47 134.661 240.456L116.674 239.33C84.3767 237.308 67.7235 199.767 87.9006 174.467L97.7735 162.088C115.164 140.282 148.97 142.521 163.334 166.429Z" fill="url(#paint3_linear_1_494)" fill-opacity="0.1"/>
<path d="M210.667 245.214L169.265 176.301C152.029 147.611 111.461 144.925 90.5925 171.092L40 234.53" stroke="#DCD7CD" stroke-width="3.12724"/>
</g>
<defs>
<linearGradient id="paint0_linear_1_494" x1="1781.89" y1="14.5065" x2="1746.93" y2="237.591" gradientUnits="userSpaceOnUse">
<stop stop-color="#D7C8A3"/>
<stop offset="1" stop-color="#B08E5F" stop-opacity="0"/>
</linearGradient>
<linearGradient id="paint1_linear_1_494" x1="1575.85" y1="73.4307" x2="1559.62" y2="226.027" gradientUnits="userSpaceOnUse">
<stop stop-color="#D7C8A3"/>
<stop offset="1" stop-color="#B08E5F" stop-opacity="0"/>
</linearGradient>
<linearGradient id="paint2_linear_1_494" x1="262.943" y1="12.6462" x2="227.061" y2="237.999" gradientUnits="userSpaceOnUse">
<stop stop-color="#D7C8A3"/>
<stop offset="1" stop-color="#B08E5F" stop-opacity="0"/>
</linearGradient>
<linearGradient id="paint3_linear_1_494" x1="122.465" y1="115.222" x2="101.175" y2="244.597" gradientUnits="userSpaceOnUse">
<stop stop-color="#D7C8A3"/>
<stop offset="1" stop-color="#B08E5F" stop-opacity="0"/>
</linearGradient>
<clipPath id="clip0_1_494">
<rect width="1920" height="217" fill="white"/>
</clipPath>
</defs>
</svg>
